# xmcd
#
# Track frame offsets: 
#        150
#        12253
#        32087
#        45167
#        67004
#        79422
#        96337
#        104397
#        118169
#        138359
#        151082
#        163000
#        170304
#
# Disc length: 2501 seconds
#
# Revision: 1
# Processed by: cddbd v1.5.2PL0 Copyright (c) Steve Scherf et al.
# Submitted via: ExactAudioCopy v0.99pb4
#
DISCID=a209c30d
DTITLE=Cristin Claas - In the Shadow of Your Words
DYEAR=2007
DGENRE=Jazz
TTITLE0=I´m Waiting
TTITLE1=In the Shadow of YOur Words
TTITLE2=Röslein
TTITLE3=Unschuld
TTITLE4=Daydreams
TTITLE5=On a Roof
TTITLE6=Noerdwind
TTITLE7=Underwater WOman
TTITLE8=Wednesday
TTITLE9=Ze Duch Mae
TTITLE10=Mother Tongue
TTITLE11=Indian Summer
TTITLE12=Venedig
EXTD=YEAR: 2007
EXTT0=
EXTT1=
EXTT2=
EXTT3=
EXTT4=
EXTT5=
EXTT6=
EXTT7=
EXTT8=
EXTT9=
EXTT10=
EXTT11=
EXTT12=
PLAYORDER=
